<?xml version="1.0" encoding="utf-8"?>
<!-- Generator: Adobe Illustrator 26.4.0, SVG Export Plug-In . SVG Version: 6.00 Build 0)  -->
<svg version="1.1" id="Layer_1" xmlns="http://www.w3.org/2000/svg" xmlns:xlink="http://www.w3.org/1999/xlink" x="0px" y="0px"
	 viewBox="0 0 1400 900" style="enable-background:new 0 0 1400 900;" xml:space="preserve">
<style type="text/css">
	.st0{fill:#FFFFFF;}
	.st1{fill:#FFFFFF;stroke:#E5E7EB;}
	.st2{fill:url(#SVGID_1_);}
	.st3{stroke:#FFFFFF;stroke-width:2;stroke-linecap:round;}
	.st4{fill:#111827;}
	.st5{font-family:'Arial-BoldMT';}
	.st6{font-size:20px;}
	.st7{fill:#F3F4F6;stroke:#D1D5DB;}
	.st8{fill:#FBBF24;}
	.st9{stroke:#6B7280;stroke-width:1.5;stroke-linecap:round;}
	.st10{font-size:14px;}
	.st11{fill:#3B82F6;}
	.st12{font-family:'ArialMT';}
	.st13{font-size:12px;}
	.st14{fill:#FFFFFF;stroke:#D1D5DB;}
	.st15{fill:#10B981;}
	.st16{font-size:13px;}
	.st17{fill:#DBEAFE;}
	.st18{fill:#1D4ED8;}
	.st19{font-size:10px;}
	.st20{fill:#6B7280;}
	.st21{font-size:11px;}
	.st22{fill:none;stroke:#9CA3AF;stroke-width:1.5;}
	.st23{fill:#9CA3AF;}
	.st24{fill:#E0F2FE;stroke:#0284C7;}
	.st25{fill:#0EA5E9;}
	.st26{fill:#0C4A6E;}
	.st27{fill:#0369A1;}
	.st28{fill:#E2E8F0;}
	.st29{stroke:#64748B;stroke-width:1.5;stroke-linecap:round;}
	.st30{fill:none;stroke:#64748B;stroke-width:1.5;stroke-linecap:round;}
	.st31{fill:none;stroke:#64748B;stroke-width:1.5;}
	.st32{fill:#1A2735;}
	.st33{fill:#FFBF14;}
	.st34{fill:#C4C7CA;}
	.st35{fill:#00A5AA;}
	.st36{fill:#F9FAFB;stroke:#E5E7EB;}
	.st37{fill:#1E40AF;}
	.st38{font-size:18px;}
	.st39{fill:#F3F4F6;}
	.st40{stroke:#FFFFFF;}
	.st41{fill:#DBEAFE;stroke:#3B82F6;}
	.st42{fill:#059669;}
	.st43{font-size:15.9839px;}
	.st44{font-size:11.9879px;}
	.st45{font-size:13.9859px;}
	.st46{fill:#374151;}
	.st47{font-family:'CourierNewPSMT';}
	.st48{font-size:9.9899px;}
	.st49{font-size:17.2954px;}
	.st50{font-size:10.5694px;}
</style>
<rect class="st0" width="1400" height="900"/>
<rect class="st1" width="1400" height="64"/>
<g transform="translate(24, 16)">
	
		<linearGradient id="SVGID_1_" gradientUnits="userSpaceOnUse" x1="68.25" y1="-8.125" x2="69.25" y2="-7.125" gradientTransform="matrix(32 0 0 32 -2184 260)">
		<stop  offset="0" style="stop-color:#24BEE1"/>
		<stop  offset="1" style="stop-color:#8F1AFE"/>
	</linearGradient>
	<path class="st2" d="M6,0h20c3.3,0,6,2.7,6,6v20c0,3.3-2.7,6-6,6H6c-3.3,0-6-2.7-6-6V6C0,2.7,2.7,0,6,0z"/>
	<path class="st3" d="M8,12h16 M8,16h16 M8,20h16"/>
	<text transform="matrix(1 0 0 1 44 24)" class="st4 st5 st6">MCP Connect</text>
</g>
<g transform="translate(1300, 20)">
	<circle class="st7" cx="12" cy="12" r="12"/>
	<circle class="st8" cx="12" cy="12" r="6"/>
</g>
<g transform="translate(1340, 20)">
	<path class="st7" d="M4,0h16c2.2,0,4,1.8,4,4v16c0,2.2-1.8,4-4,4H4c-2.2,0-4-1.8-4-4V4C0,1.8,1.8,0,4,0z"/>
	<path class="st9" d="M12,8v8 M8,12h8"/>
</g>
<rect y="64" class="st1" width="320" height="834.9"/>
<text transform="matrix(1 0 0 1 16 96)" class="st4 st5 st10">Connections</text>
<text transform="matrix(1 0 0 1 258.374 96.3518)" class="st11 st12 st13">Manage</text>
<g transform="translate(16, 108)">
	<path class="st14" d="M8,0h272c4.4,0,8,3.6,8,8v64c0,4.4-3.6,8-8,8H8c-4.4,0-8-3.6-8-8V8C0,3.6,3.6,0,8,0z"/>
	<g transform="translate(12, 12)">
		<circle class="st15" cx="4" cy="4" r="3"/>
		<text transform="matrix(1 0 0 1 16 8)" class="st4 st12 st16">GitHub MCP Server</text>
		<path class="st17" d="M208,0h16c4.4,0,8,3.6,8,8l0,0c0,4.4-3.6,8-8,8h-16c-4.4,0-8-3.6-8-8l0,0C200,3.6,203.6,0,208,0z"/>
		<text transform="matrix(1 0 0 1 205.9951 11)" class="st18 st12 st19">SSE</text>
		<text transform="matrix(1 0 0 1 15.0981 28.6309)" class="st20 st12 st21">http://localhost:3001/mcp/github</text>
	</g>
</g>
<text transform="matrix(1 0 0 1 16 220)" class="st4 st5 st10">Tools (8)</text>
<g transform="translate(16, 232)">
	<path class="st14" d="M6,0h276c3.3,0,6,2.7,6,6v20c0,3.3-2.7,6-6,6H6c-3.3,0-6-2.7-6-6V6C0,2.7,2.7,0,6,0z"/>
	<path class="st22" d="M28,246l4,4 M24,242c0-3.3,2.7-6,6-6s6,2.7,6,6s-2.7,6-6,6S24,245.3,24,242L24,242"/>
	<text transform="matrix(1 0 0 1 40 252)" class="st23 st12 st13">Search tools...</text>
</g>
<g transform="translate(16, 276)">
	<g>
		<path class="st24" d="M6,0h276c3.3,0,6,2.7,6,6v44c0,3.3-2.7,6-6,6H6c-3.3,0-6-2.7-6-6V6C0,2.7,2.7,0,6,0z"/>
		<path class="st25" d="M18,12h20c3.3,0,6,2.7,6,6v20c0,3.3-2.7,6-6,6H18c-3.3,0-6-2.7-6-6V18C12,14.7,14.7,12,18,12z"/>
		<path class="st3" d="M28,20v16 M20,28h16"/>
		<text transform="matrix(1 0 0 1 52 24)" class="st26 st12 st13">create_repository</text>
		<text transform="matrix(1 0 0 1 52 40)" class="st27 st12 st19">Create a new GitHub repository</text>
	</g>
	<g transform="translate(0, 64)">
		<path class="st14" d="M6,0h276c3.3,0,6,2.7,6,6v44c0,3.3-2.7,6-6,6H6c-3.3,0-6-2.7-6-6V6C0,2.7,2.7,0,6,0z"/>
		<path class="st28" d="M18,12h20c3.3,0,6,2.7,6,6v20c0,3.3-2.7,6-6,6H18c-3.3,0-6-2.7-6-6V18C12,14.7,14.7,12,18,12z"/>
		<path class="st29" d="M20,20h16 M20,24h12 M20,28h16 M20,32h8"/>
		<text transform="matrix(1 0 0 1 52 24)" class="st4 st12 st13">get_repository</text>
		<text transform="matrix(1 0 0 1 52 40)" class="st20 st12 st19">Get repository information</text>
	</g>
	<g transform="translate(0, 128)">
		<path class="st14" d="M6,0h276c3.3,0,6,2.7,6,6v44c0,3.3-2.7,6-6,6H6c-3.3,0-6-2.7-6-6V6C0,2.7,2.7,0,6,0z"/>
		<path class="st28" d="M18,12h20c3.3,0,6,2.7,6,6v20c0,3.3-2.7,6-6,6H18c-3.3,0-6-2.7-6-6V18C12,14.7,14.7,12,18,12z"/>
		<path class="st29" d="M24,18v4 M24,26v4 M24,34v4 M20,20h8 M20,28h8 M20,36h8"/>
		<text transform="matrix(1 0 0 1 52 24)" class="st4 st12 st13">list_repositories</text>
		<text transform="matrix(1 0 0 1 52 40)" class="st20 st12 st19">List user/organization repositories</text>
	</g>
	<g transform="translate(0, 192)">
		<path class="st14" d="M6,0h276c3.3,0,6,2.7,6,6v44c0,3.3-2.7,6-6,6H6c-3.3,0-6-2.7-6-6V6C0,2.7,2.7,0,6,0z"/>
		<path class="st28" d="M18,12h20c3.3,0,6,2.7,6,6v20c0,3.3-2.7,6-6,6H18c-3.3,0-6-2.7-6-6V18C12,14.7,14.7,12,18,12z"/>
		<path class="st30" d="M20,24h16 M20,28h12 M28,20c-3.3-2.9-8.4-2.6-11.3,0.7s-2.6,8.4,0.7,11.3c3,2.7,7.6,2.7,10.6,0"/>
		<text transform="matrix(1 0 0 1 52 24)" class="st4 st12 st13">create_issue</text>
		<text transform="matrix(1 0 0 1 52 40)" class="st20 st12 st19">Create a new issue</text>
	</g>
	<g transform="translate(0, 256)">
		<path class="st14" d="M6,0h276c3.3,0,6,2.7,6,6v44c0,3.3-2.7,6-6,6H6c-3.3,0-6-2.7-6-6V6C0,2.7,2.7,0,6,0z"/>
		<path class="st28" d="M18,12h20c3.3,0,6,2.7,6,6v20c0,3.3-2.7,6-6,6H18c-3.3,0-6-2.7-6-6V18C12,14.7,14.7,12,18,12z"/>
		<path class="st31" d="M22,18h12v20H22V18z M22,18l6,6l6-6"/>
		<text transform="matrix(1 0 0 1 52 24)" class="st4 st12 st13">get_file_contents</text>
		<text transform="matrix(1 0 0 1 52 40)" class="st20 st12 st19">Read file contents from repository</text>
	</g>
</g>
<g transform="translate(16, 820)">
	<text transform="matrix(1 0 0 1 64.7549 23.957)" class="st20 st12 st19">Built for developers by</text>
	<text transform="matrix(1 0 0 1 167.3657 24.5436)" class="st11 st12 st19">rconnect.tech</text>
	<path class="st32" d="M166.6-26.3l-18.1-18.1c-2.1-2.1-5.5-2.1-7.6,0l-18.1,18.1c-2.1,2.1-2.1,5.5,0,7.6l18.1,18.1
		c2.1,2.1,5.5,2.1,7.6,0l18.1-18.1C168.7-20.8,168.7-24.2,166.6-26.3z"/>
	<path class="st33" d="M147.8-22.7h-4.1c-0.9,0-1.4,1.1-0.8,1.8l5.5,6.6c0.2,0.2,0.5,0.4,0.8,0.4h4.1c0.9,0,1.4-1.1,0.8-1.8
		l-5.5-6.6C148.4-22.5,148.1-22.7,147.8-22.7z"/>
	<path class="st34" d="M153.5-30.1c-0.8-0.9-1.9-1.5-3.2-1.5h-13.1c-1.3,0-2.3,1.1-2.3,2.4s1.1,2.4,2.3,2.4h10.4
		c0.9,0,1.7,0.4,2.3,1l0.4,0.4c1.1,1.1,2.8,1.1,3.9,0c1-1,1-2.6,0.1-3.7L153.5-30.1z"/>
	<path class="st35" d="M134.8-20.1c0-1.3,1.1-2.4,2.4-2.4s2.4,1.1,2.4,2.4v4.3c0,1.3-1.1,2.4-2.4,2.4s-2.4-1.1-2.4-2.4V-20.1z"/>
</g>
<rect x="320" y="64" class="st0" width="680" height="836"/>
<g transform="translate(320, 64)">
	<rect class="st36" width="680" height="48"/>
	<g transform="translate(24, 12)">
		<path class="st17" d="M6,0h128c3.3,0,6,2.7,6,6v12c0,3.3-2.7,6-6,6H6c-3.3,0-6-2.7-6-6V6C0,2.7,2.7,0,6,0z"/>
		<path class="st18" d="M9.7,15.8c-1.1,0-2-0.9-2-2v-6c0-1.1,0.9-2,2-2h12c1.1,0,2,0.9,2,2v6c0,1.1-0.9,2-2,2h-8l-4,4V15.8z"/>
		<text transform="matrix(1 0 0 1 32 16)" class="st37 st12 st13">Chat Interface</text>
	</g>
</g>
<g transform="translate(320, 112)">
	<rect class="st1" width="680" height="80"/>
	<g transform="translate(24, 16)">
		<text transform="matrix(1 0 0 1 0 20)" class="st4 st5 st38">GitHub MCP Server</text>
		<g transform="translate(0, 32)">
			<text transform="matrix(1 0 0 1 0.4702 10.335)" class="st20 st12 st16">4 messages • 8 tools available</text>
		</g>
	</g>
</g>
<g transform="translate(320, 192)">
	<rect class="st0" width="680" height="580"/>
	<g transform="translate(40, 32)">
		<circle class="st4" cx="600" cy="16" r="16"/>
		<text transform="matrix(1 0 0 1 595.667 20)" class="st0 st12 st13">U</text>
		<g transform="translate(0, 0)">
			<text transform="matrix(1 0 0 1 120.2295 20)" class="st4 st12 st10">I want to create a new repository for the MCPConnect project on GitHub.</text>
			<text transform="matrix(1 0 0 1 165.333 38)" class="st4 st12 st10">Can you help me set it up with a good description and README?</text>
		</g>
	</g>
	<g transform="translate(40, 100)">
		<circle class="st39" cx="16" cy="16" r="16"/>
		<text transform="matrix(1 0 0 1 11.998 20)" class="st20 st12 st13">A</text>
		<g transform="translate(40, 0)">
			<text transform="matrix(1 0 0 1 0 16)" class="st4 st12 st10">I&apos;ll help you create a GitHub repository for MCPConnect. Let me start by creating</text>
			<text transform="matrix(1 0 0 1 0 34)" class="st4 st12 st10">the repository with an appropriate name and description.</text>
		</g>
	</g>
	<g transform="translate(40, 160)">
		<circle class="st39" cx="16" cy="16" r="16"/>
		<text transform="matrix(1 0 0 1 11.998 20)" class="st20 st12 st13">A</text>
		<g transform="translate(40, 0)">
			<path class="st24" d="M8,0h544c4.4,0,8,3.6,8,8v48c0,4.4-3.6,8-8,8H8c-4.4,0-8-3.6-8-8V8C0,3.6,3.6,0,8,0z"/>
			<g transform="translate(16, 16)">
				<circle class="st15" cx="6" cy="6" r="4"/>
				<text transform="matrix(1 0 0 1 20 10)" class="st26 st12 st13">Tool executed successfully</text>
				<text transform="matrix(1 0 0 1 20 26)" class="st27 st12 st21">create_repository completed</text>
				<text transform="matrix(1 0 0 1 480 10)" class="st27 st12 st19">Expand</text>
			</g>
		</g>
	</g>
	<g transform="translate(40, 244)">
		<circle class="st39" cx="16" cy="16" r="16"/>
		<text transform="matrix(1 0 0 1 11.998 20)" class="st20 st12 st13">A</text>
		<g transform="translate(40, 0)">
			<text transform="matrix(1 0 0 1 0 16)" class="st4 st12 st10">Perfect! I&apos;ve successfully created the MCPConnect repository on GitHub.</text>
			<text transform="matrix(1 0 0 1 0 34)" class="st4 st12 st10">Repository details:</text>
			<text transform="matrix(1 0 0 1 0 56)" class="st4 st12 st10">• Name: mcpconnect</text>
			<text transform="matrix(1 0 0 1 0 74)" class="st4 st12 st10">• Description: &quot;Build and debug Model Context Protocol integrations&quot;</text>
			<text transform="matrix(1 0 0 1 0 92)" class="st4 st12 st10">• URL: https://github.com/rocket-connect/mcpconnect</text>
			<text transform="matrix(1 0 0 1 0 114)" class="st4 st12 st10">Would you like me to create an initial README.md file with project</text>
			<text transform="matrix(1 0 0 1 0 132)" class="st4 st12 st10">documentation and setup instructions?</text>
		</g>
	</g>
	<g transform="translate(40, 400)">
		<circle class="st4" cx="600" cy="16" r="16"/>
		<text transform="matrix(1 0 0 1 595.667 20)" class="st0 st12 st13">U</text>
		<g transform="translate(0, 0)">
			<text transform="matrix(1 0 0 1 112.1904 20)" class="st4 st12 st10">Yes, please create a comprehensive README.md with setup instructions,</text>
			<text transform="matrix(1 0 0 1 297.6289 38)" class="st4 st12 st10">usage examples, and architecture overview.</text>
		</g>
	</g>
	<g transform="translate(40, 460)">
		<circle class="st39" cx="16" cy="16" r="16"/>
		<g transform="translate(12, 12)">
			<circle class="st11" cx="4" cy="4" r="2">
			
				<animate  accumulate="none" additive="replace" attributeName="opacity" calcMode="linear" dur="1s" fill="remove" repeatCount="indefinite" restart="always" values="1;0;1">
				</animate>
			</circle>
		</g>
		<g transform="translate(40, 0)">
			<text transform="matrix(1 0 0 1 0 16)" class="st4 st12 st10">I&apos;ll create a comprehensive README.md file for the MCPConnect project.</text>
			<text transform="matrix(1 0 0 1 0 34)" class="st4 st12 st10">Let me add detailed documentation with installation guides and</text>
		</g>
	</g>
</g>
<g transform="translate(320, 772)">
	<rect class="st1" width="680" height="64"/>
	<g transform="translate(40, 16)">
		<path class="st14" d="M8,0h544c4.4,0,8,3.6,8,8v16c0,4.4-3.6,8-8,8H8c-4.4,0-8-3.6-8-8V8C0,3.6,3.6,0,8,0z"/>
		<text transform="matrix(1 0 0 1 16 22)" class="st23 st12 st10">Message Claude about GitHub MCP Server... (8 tools available, streaming mode)</text>
		<g transform="translate(580, 4)">
			<path class="st4" d="M6,0h12c3.3,0,6,2.7,6,6v12c0,3.3-2.7,6-6,6H6c-3.3,0-6-2.7-6-6V6C0,2.7,2.7,0,6,0z"/>
			<path class="st0" d="M8,12l8-4v8L8,12z"/>
		</g>
	</g>
</g>
<rect x="1000" y="64" class="st1" width="400" height="836"/>
<g transform="translate(1000, 64)">
	<rect class="st1" width="400" height="48"/>
	<g transform="translate(16, 16)">
		<path class="st20" d="M2,0h16c1.1,0,2,0.9,2,2v12c0,1.1-0.9,2-2,2H2c-1.1,0-2-0.9-2-2V2C0,0.9,0.9,0,2,0z"/>
		<path class="st40" d="M4,4h12 M4,8h8 M4,12h12"/>
		<text transform="matrix(1 0 0 1 28 12)" class="st4 st5 st10">Request Inspector</text>
		<text transform="matrix(1 0 0 1 320 12)" class="st20 st12 st13">3 requests</text>
	</g>
</g>
<g transform="translate(1000, 112)">
	<rect class="st36" width="400" height="300"/>
	<g transform="translate(0, 0)">
		<rect class="st7" width="400" height="32"/>
		<text transform="matrix(1 0 0 1 16 20)" class="st20 st12 st21">Tool Name</text>
		<text transform="matrix(1 0 0 1 164.4077 20)" class="st20 st12 st21">Status</text>
		<text transform="matrix(1 0 0 1 249.2112 20)" class="st20 st12 st21">Duration</text>
		<text transform="matrix(1 0 0 1 337.9822 20)" class="st20 st12 st21">Time</text>
	</g>
	<g transform="translate(0, 32)">
		<g>
			<rect class="st41" width="400" height="40"/>
			<circle class="st15" cx="28" cy="20" r="4"/>
			<text transform="matrix(1 0 0 1 40 16)" class="st4 st12 st21">create_repository</text>
			<text transform="matrix(1 0 0 1 170.8235 16)" class="st42 st12 st21">200</text>
			<text transform="matrix(1 0 0 1 257.7686 16)" class="st20 st12 st19">1.24s</text>
			<text transform="matrix(1 0 0 1 330.5371 16)" class="st20 st12 st19">14:32:15</text>
		</g>
		<g transform="translate(0, 40)">
			<rect class="st1" width="400" height="40"/>
			<circle class="st15" cx="27.8" cy="15.1" r="4"/>
			<text transform="matrix(1 0 0 1 40 16)" class="st4 st12 st21">get_repository</text>
			<text transform="matrix(1 0 0 1 170.8235 16)" class="st42 st12 st21">200</text>
			<text transform="matrix(1 0 0 1 257.7686 16)" class="st20 st12 st19">0.45s</text>
			<text transform="matrix(1 0 0 1 330.5371 16)" class="st20 st12 st19">14:31:42</text>
			<circle class="st15" cx="27.8" cy="53.8" r="4"/>
		</g>
		<g transform="translate(0, 80)">
			<rect class="st1" width="400" height="40"/>
			<text transform="matrix(1 0 0 1 40 16)" class="st4 st12 st21">create_file</text>
			<text transform="matrix(1 0 0 1 175.4158 16)" class="st11 st12 st21">...</text>
			<text transform="matrix(1 0 0 1 260.5493 16)" class="st20 st12 st19">1.2s</text>
			<text transform="matrix(1 0 0 1 330.5371 16)" class="st20 st12 st19">14:33:01</text>
		</g>
	</g>
</g>
<g transform="translate(1000, 412)">
	<rect class="st1" width="400" height="485.7"/>
	<g transform="translate(16, 20)">
		<ellipse class="st15" cx="8" cy="8" rx="6" ry="6"/>
		<ellipse class="st15" cx="306.6" cy="424.8" rx="6" ry="6"/>
		<text transform="matrix(1.001 0 0 1 24 11.9673)" class="st4 st5 st43">create_repository</text>
		<text transform="matrix(1.001 0 0 1 180 11.9673)" class="st42 st12 st44">200 OK</text>
		<text transform="matrix(1.001 0 0 1 280 11.9673)" class="st20 st12 st44">14:32:15 • 1.24s</text>
	</g>
	<g transform="translate(16, 60)">
		<text transform="matrix(1.001 0 0 1 0 -6.054688e-02)" class="st4 st5 st45">Request</text>
		<path class="st36" d="M6,11.9h356c3.3,0,6,2.7,6,6v127.9c0,3.3-2.7,6-6,6H6c-3.3,0-6-2.7-6-6V17.9C0,14.6,2.7,11.9,6,11.9z"/>
		<text transform="matrix(1.001 0 0 1 12 31.9072)" class="st46 st47 st48">{</text>
		<text transform="matrix(1.001 0 0 1 24 47.8906)" class="st46 st47 st48">&quot;name&quot;: &quot;mcpconnect&quot;,</text>
		<text transform="matrix(1.001 0 0 1 24 63.875)" class="st46 st47 st48">&quot;description&quot;: &quot;Build and debug Model Context Protoc...</text>
		<text transform="matrix(1.001 0 0 1 24 79.8584)" class="st46 st47 st48">&quot;private&quot;: false,</text>
		<text transform="matrix(1.001 0 0 1 24 95.8428)" class="st46 st47 st48">&quot;auto_init&quot;: true,</text>
		<text transform="matrix(1.001 0 0 1 24 111.8262)" class="st46 st47 st48">&quot;license_template&quot;: &quot;mit&quot;,</text>
		<text transform="matrix(1.001 0 0 1 24 127.8105)" class="st46 st47 st48">&quot;has_issues&quot;: true,</text>
		<text transform="matrix(1.001 0 0 1 12 143.7939)" class="st46 st47 st48">}</text>
	</g>
	<g transform="translate(16, 230)">
		<text transform="matrix(1.001 0 0 1 0 -0.2324)" class="st4 st5 st45">Response</text>
		<path class="st36" d="M6,11.8h356c3.3,0,6,2.7,6,6v167.8c0,3.3-2.7,6-6,6H6c-3.3,0-6-2.7-6-6V17.7C0,14.5,2.7,11.8,6,11.8z"/>
		<text transform="matrix(1.001 0 0 1 12 31.7354)" class="st46 st47 st48">{</text>
		<text transform="matrix(1.001 0 0 1 24 47.7197)" class="st46 st47 st48">&quot;id&quot;: 742621895,</text>
		<text transform="matrix(1.001 0 0 1 24 63.7031)" class="st46 st47 st48">&quot;name&quot;: &quot;mcpconnect&quot;,</text>
		<text transform="matrix(1.001 0 0 1 24 79.6875)" class="st46 st47 st48">&quot;full_name&quot;: &quot;rocket-connect/mcpconnect&quot;,</text>
		<text transform="matrix(1.001 0 0 1 24 95.6709)" class="st46 st47 st48">&quot;owner&quot;: {</text>
		<text transform="matrix(1.001 0 0 1 36 111.6553)" class="st46 st47 st48">&quot;login&quot;: &quot;rocket-connect&quot;,</text>
		<text transform="matrix(1.001 0 0 1 36 127.6387)" class="st46 st47 st48">&quot;type&quot;: &quot;Organization&quot;</text>
		<text transform="matrix(1.001 0 0 1 24 143.623)" class="st46 st47 st48">},</text>
		<text transform="matrix(1.001 0 0 1 24 159.6064)" class="st46 st47 st48">&quot;html_url&quot;: &quot;https://github.com/rocket-connect/mcp...</text>
		<text transform="matrix(1.001 0 0 1 12 169.5967)" class="st46 st47 st48">}</text>
	</g>
	<g transform="translate(16, 430)">
		<rect y="-0.4" class="st36" width="368" height="57.7"/>
		<g transform="translate(60, 20)">
			<text transform="matrix(1.0407 0 0 1 -22.5215 -1.2168)" class="st4 st5 st49">1.24s</text>
			<text transform="matrix(1.0407 0 0 1 -38.2129 18)" class="st20 st12 st50">Response Time</text>
		</g>
		<g transform="translate(184, 20)">
			<text transform="matrix(1.0407 0 0 1 -24.0156 -1.2168)" class="st4 st5 st49">3.2kB</text>
			<text transform="matrix(1.0407 0 0 1 -23.8447 18)" class="st20 st12 st50">Data Size</text>
		</g>
		<g transform="translate(308, 20)">
			<text transform="matrix(1.0407 0 0 1 -15.5918 18)" class="st20 st12 st50">Status</text>
		</g>
	</g>
</g>
</svg>
